HIERARCHY
ROOT Hips
{
	OFFSET 0.00000 0.00000 0.00000
	CHANNELS 6 Xposition Yposition Zposition Zrotation Yrotation Xrotation 
	JOINT LHipJoint
	{
		OFFSET 0 0 0
		CHANNELS 3 Zrotation Yrotation Xrotation
		JOINT LeftHip
		{
			OFFSET 1.74857 -1.85566 0.69197
			CHANNELS 3 Zrotation Yrotation Xrotation
			JOINT LeftKnee
			{
				OFFSET 2.40003 -6.59403 0.00000
				CHANNELS 3 Zrotation Yrotation Xrotation
				JOINT LeftAnkle
				{
					OFFSET 2.82169 -7.75254 0.00000
					CHANNELS 3 Zrotation Yrotation Xrotation
					JOINT LeftToe
					{
						OFFSET 0.16466 -0.45240 2.26890
						CHANNELS 3 Zrotation Yrotation Xrotation
						End Site
						{
							OFFSET 0.00000 -0.00000 1.16486
						}
					}
				}
			}
		}
	}
	JOINT RHipJoint
	{
		OFFSET 0 0 0
		CHANNELS 3 Zrotation Yrotation Xrotation
		JOINT RightHip
		{
			OFFSET -1.64169 -1.85566 0.69197
			CHANNELS 3 Zrotation Yrotation Xrotation
			JOINT RightKnee
			{
				OFFSET -2.41814 -6.64379 0.00000
				CHANNELS 3 Zrotation Yrotation Xrotation
				JOINT RightAnkle
				{
					OFFSET -2.80588 -7.70911 0.00000
					CHANNELS 3 Zrotation Yrotation Xrotation
					JOINT RightToe
					{
						OFFSET -0.19098 -0.52472 2.25401
						CHANNELS 3 Zrotation Yrotation Xrotation
						End Site
						{
							OFFSET -0.00000 -0.00000 1.16333
						}
					}
				}
			}
		}
	}
	JOINT lowerback
	{
		OFFSET 0 0 0
		CHANNELS 3 Zrotation Yrotation Xrotation
		JOINT Chest
		{
			OFFSET -0.02828 2.14690 -0.11061
			CHANNELS 3 Zrotation Yrotation Xrotation
			JOINT Chest2
			{
				OFFSET -0.00167 2.15299 0.00759
				CHANNELS 3 Zrotation Yrotation Xrotation
				JOINT lowerneck
				{
					OFFSET 0 0 0
					CHANNELS 3 Zrotation Yrotation Xrotation
					JOINT Neck
					{
						OFFSET -0.09296 1.90118 0.07197
						CHANNELS 3 Zrotation Yrotation Xrotation
						JOINT Head
						{
							OFFSET 0.08490 1.89526 -0.24604
							CHANNELS 3 Zrotation Yrotation Xrotation
							End Site
							{
								OFFSET 0.03186 1.92109 -0.09483
							}
						}
					}
				}
				JOINT LeftCollar
				{
					OFFSET 0 0 0
					CHANNELS 3 Zrotation Yrotation Xrotation
					JOINT LeftShoulder
					{
						OFFSET 3.21569 1.44644 -0.03720
CHANNELS 3 Zrotation Xrotation Yrotation
						JOINT LeftElbow
						{
OFFSET 0 -5.476510 -0.000000
CHANNELS 3 Zrotation Xrotation Yrotation
							JOINT LeftWrist
							{
OFFSET 0 -3.090580 -0.000000
CHANNELS 3 Zrotation Xrotation Yrotation
								JOINT lhand
								{
									OFFSET 0 0 0
CHANNELS 3 Zrotation Xrotation Yrotation
									JOINT LFingers
									{
OFFSET 0 -0.771610 -0.000000
CHANNELS 3 Zrotation Xrotation Yrotation
										End Site
										{
OFFSET 0 -0.622090 -0.000000
										}
									}
								}
								JOINT LThumb
								{
OFFSET 0 0.000000 0.000000
CHANNELS 3 Zrotation Xrotation Yrotation
									End Site
									{
OFFSET 0 -0.631590 0.631590
									}
								}
							}
						}
					}
				}
				JOINT RightCollar
				{
					OFFSET 0 0 0
					CHANNELS 3 Zrotation Yrotation Xrotation
					JOINT RightShoulder
					{
						OFFSET -3.38693 1.28904 -0.07093
CHANNELS 3 Zrotation Xrotation Yrotation
						JOINT RightElbow
						{
OFFSET 0 -5.141820 -0.000000
CHANNELS 3 Zrotation Xrotation Yrotation
							JOINT RightWrist
							{
OFFSET 0 -3.355650 -0.000000
CHANNELS 3 Zrotation Xrotation Yrotation
								JOINT rhand
								{
									OFFSET 0 0 0
CHANNELS 3 Zrotation Xrotation Yrotation
									JOINT RFingers
									{
OFFSET 0 -0.801040 -0.000000
CHANNELS 3 Zrotation Xrotation Yrotation
										End Site
										{
OFFSET 0 -0.645820 -0.000000
										}
									}
								}
								JOINT RThumb
								{
OFFSET 0 0.000000 0.000000
CHANNELS 3 Zrotation Xrotation Yrotation
									End Site
									{
OFFSET 0 -0.655680 0.655680
									}
								}
							}
						}
					}
				}
			}
		}
	}
}
MOTION
Frames: 8
Frame Time: 0.008333333333333333
0.006122 17.820011 -0.293443 2.332259 -3.142627 -2.993282 0.000000 0.000000 0.000000 -22.448625 -0.429394 -1.611200 1.678930 8.162542 23.208934 1.226550 4.788414 -23.149387 0.587807 -4.908931 -13.648908 0.000000 0.000000 0.000000 15.720122 3.264423 -4.242732 -2.171095 -9.213618 26.465924 -0.985457 -6.285722 -22.033011 -0.582681 4.887120 -13.587076 -1.465142 3.530955 3.519537 -1.366844 4.629607 0.549646 -0.799520 2.316691 -1.406403 -5.035597 -4.413531 -2.353393 4.000705 -6.072912 11.704759 1.772331 -3.015621 4.159049 0.000000 0.000000 0.000000 21.240085 -0.164783 -54.632866 109.541335 -58.501899 76.837669 -1.280482 -46.126369 -27.978938 0.000000 0.000000 0.000000 -7.125000 0.000000 0.000000 -33.282732 54.660579 8.612854 0.000000 0.000000 0.000000 -35.579327 -23.643660 12.635971 -135.413920 -50.563452 -98.081237 -21.098782 -67.737435 -13.531092 0.000000 0.000000 0.000000 7.125000 0.000000 0.000000 4.304938 15.543614 3.002560
-0.063454 17.906462 -0.201648 2.145593 -0.149829 -1.764177 0.000000 0.000000 0.000000 -22.020395 -2.075992 -1.216700 1.399671 7.483991 21.157474 1.064314 4.397872 -21.542047 0.643570 -5.131943 -14.285252 0.000000 0.000000 0.000000 16.451166 2.878226 -3.014068 -1.731834 -8.283579 23.578828 -0.774155 -9.128812 -22.331151 -0.522891 4.633813 -12.867113 -1.145872 2.802518 2.451988 -0.542070 3.694554 -0.148648 -0.054825 1.852381 -1.561110 -6.430088 -4.616547 -1.624717 3.402466 -6.267789 13.475845 1.806024 -3.214333 4.617121 0.000000 0.000000 0.000000 24.716870 -4.887210 -25.201471 128.446839 -53.602576 92.580432 0.593877 -73.704987 -27.332344 0.000000 0.000000 0.000000 -7.125000 0.000000 0.000000 -31.052039 54.465743 7.788334 0.000000 0.000000 0.000000 -25.796749 -12.175911 -3.912809 -136.981944 -49.759425 -99.285409 -17.538609 -83.423890 -15.015453 0.000000 0.000000 0.000000 7.125000 0.000000 0.000000 6.781779 14.345439 4.925554
-0.092176 17.944964 -0.152692 2.110561 0.330562 -0.625898 0.000000 0.000000 0.000000 -21.846483 -2.629643 -1.777020 1.306222 7.239896 20.428087 0.998708 4.647700 -21.101242 0.738462 -5.489862 -15.311070 0.000000 0.000000 0.000000 16.609107 2.946725 -3.547597 -1.626412 -8.040214 22.836251 -0.736676 -9.453601 -22.274272 -0.438014 4.246640 -11.771668 -0.229164 2.739384 2.383981 -0.385966 3.639499 -0.339029 -0.404780 1.817981 -1.670785 -6.498724 -4.973010 -1.989272 2.959552 -6.666457 13.509095 1.648593 -3.432351 4.698522 0.000000 0.000000 0.000000 24.922732 -4.662431 3.163186 126.609239 -54.274683 91.094962 0.779403 -86.355764 -27.647646 0.000000 0.000000 0.000000 -7.125000 0.000000 0.000000 -31.108758 54.770280 8.046088 0.000000 0.000000 0.000000 -20.367705 -4.599015 -21.419232 -127.349643 -54.009322 -91.694838 -18.544436 -91.307927 -19.081230 0.000000 0.000000 0.000000 7.125000 0.000000 0.000000 6.279204 10.030084 5.121180
-0.094814 17.901831 -0.124798 2.038383 -0.045203 -0.706896 0.000000 0.000000 0.000000 -21.732961 -2.530705 -2.309599 1.470095 7.661919 21.691842 1.099615 4.263577 -21.775439 0.687640 -5.299984 -14.766566 0.000000 0.000000 0.000000 16.609183 2.909192 -4.200675 -1.802285 -8.441421 24.063086 -0.849268 -8.726065 -22.663739 -0.452444 4.315093 -11.964881 0.593276 2.897837 3.398060 -0.199816 3.883300 -0.180892 -0.732697 1.930579 -2.033811 -6.805499 -5.131593 -1.911677 3.432366 -6.916600 13.049045 1.835246 -3.542644 4.583294 0.000000 0.000000 0.000000 18.054066 0.726849 18.920713 113.316604 -57.840466 80.046126 7.290537 -98.325558 -27.664671 0.000000 0.000000 0.000000 -7.125000 0.000000 0.000000 -24.865296 56.049858 7.048136 0.000000 0.000000 0.000000 -14.381296 2.258815 -32.179110 -108.574532 -58.654620 -76.013293 -24.075855 -106.224176 -17.611553 0.000000 0.000000 0.000000 7.125000 0.000000 0.000000 2.560526 10.822863 2.036113
-0.101356 17.821722 -0.164170 2.262824 -0.552537 -1.443089 0.000000 0.000000 0.000000 -21.848918 -1.994309 -3.066799 1.761282 8.349972 23.782227 1.244466 3.541842 -22.618281 0.751838 -5.538271 -15.450298 0.000000 0.000000 0.000000 16.223242 2.857479 -5.481208 -2.264472 -9.396502 27.043618 -1.046585 -7.453595 -23.381945 -0.482402 4.453991 -12.357525 0.940861 2.751779 5.321793 -0.252218 3.719267 -0.239058 -1.079503 1.833524 -3.149155 -6.720076 -4.930358 -0.631709 4.016467 -6.807140 13.234783 2.040787 -3.471356 4.434774 0.000000 0.000000 0.000000 16.123687 4.002253 19.615915 105.651070 -59.053877 73.511164 7.722228 -97.423534 -28.794973 0.000000 0.000000 0.000000 -7.125000 0.000000 0.000000 -25.250796 57.154108 7.857781 0.000000 0.000000 0.000000 -12.038453 6.390020 -32.630404 -104.014150 -59.244719 -72.105834 -24.409877 -107.512959 -15.904909 0.000000 0.000000 0.000000 7.125000 0.000000 0.000000 2.201649 12.613380 1.669030
-0.096298 17.751036 -0.255587 4.295127 -3.882631 -1.583033 0.000000 0.000000 0.000000 -23.873758 1.008799 -4.294082 1.785450 8.404096 23.948354 1.263064 3.633858 -22.819289 0.727225 -5.448592 -15.192632 0.000000 0.000000 0.000000 13.645991 4.982240 -8.234757 -2.987367 -10.674513 31.189955 -1.302888 -4.737044 -23.739185 -0.473286 4.412091 -12.239059 0.508109 3.245440 5.496653 -0.892228 4.330449 0.257045 -1.533186 2.146223 -2.703307 -5.333632 -4.007738 -1.563865 1.618611 -5.313422 16.959425 1.104532 -2.808137 5.561162 0.000000 0.000000 0.000000 18.602540 1.168549 16.793272 101.214769 -59.519229 69.696576 7.535214 -95.538764 -27.618242 0.000000 0.000000 0.000000 -7.125000 0.000000 0.000000 -24.593555 56.056486 6.969036 0.000000 0.000000 0.000000 -16.393064 4.680824 -27.713865 -103.617297 -59.287620 -71.764745 -23.758829 -99.502784 -16.889054 0.000000 0.000000 0.000000 7.125000 0.000000 0.000000 2.711202 11.643402 2.110568
-0.162869 17.757735 -0.536458 4.174300 -5.824377 -1.881004 0.000000 0.000000 0.000000 -23.200512 2.739475 -6.347551 1.973170 8.809753 25.202161 1.277697 3.396565 -22.818380 0.628519 -5.072201 -14.114670 0.000000 0.000000 0.000000 14.114924 7.011687 -8.812593 -3.029114 -10.742047 31.414831 -1.228392 -4.249715 -22.861504 -0.363647 3.873473 -10.721024 1.048488 1.589284 7.278052 0.242417 2.188436 2.408674 -0.523633 1.091304 -1.562261 -4.066649 -0.967580 -3.309930 -2.186457 -0.350340 25.383095 -0.067126 -0.740436 8.432453 0.000000 0.000000 0.000000 14.833657 -0.842179 -0.830239 97.575259 -59.782038 66.555571 14.347807 -89.009404 -33.964046 0.000000 0.000000 0.000000 -7.125000 0.000000 0.000000 -22.760006 63.378529 10.420345 0.000000 0.000000 0.000000 -29.859415 8.502258 -0.034882 -99.826718 -59.631939 -68.499674 -14.973319 -68.277927 -7.026520 0.000000 0.000000 0.000000 7.125000 0.000000 0.000000 8.642649 22.729782 4.680307
-0.222857 17.717964 -1.004427 3.221203 -9.527286 -0.815221 0.000000 0.000000 0.000000 -21.589589 3.834786 -11.883325 2.684585 10.165969 29.515954 1.375398 3.628349 -23.722230 0.582809 -4.888280 -13.590221 0.000000 0.000000 0.000000 15.017725 8.239740 -13.239903 -3.333346 -11.215997 33.011888 -1.116499 -1.724332 -20.653425 -0.406773 4.094232 -11.341965 -0.306708 -0.889585 10.403008 0.501340 -1.223892 6.039074 0.809369 -0.638137 0.464940 -3.483450 2.747855 -1.386439 -4.468584 5.043629 25.074924 -0.538630 1.649124 8.019082 0.000000 0.000000 0.000000 10.659187 -7.022066 -31.559257 97.117770 -59.807674 66.160204 21.330631 -83.290859 -37.072224 0.000000 0.000000 0.000000 -7.125000 0.000000 0.000000 -18.053229 68.223302 10.191986 0.000000 0.000000 0.000000 -50.970930 9.476794 31.939436 -105.091635 -59.121487 -73.031123 -5.147472 -50.868592 -2.349067 0.000000 0.000000 0.000000 7.125000 0.000000 0.000000 16.330266 27.486819 7.224871
